<svg xmlns="http://www.w3.org/2000/svg" viewBox="0 0 1200 1200"><path d="M900.43 616.25h81.62q8.58 0 8.59 8.59C983.48 727.93 946.25 819.57 879 895.45c-4.29 2.87-7.15 2.87-11.45 0l-64.43-63a363.47 363.47 0 0088.77-207.61c-.05-5.73 4.25-8.59 8.54-8.59zM675.64 705l-78.75-78.75c-5.73-5.72-2.87-10 4.29-10H700q8.58 0 8.59 8.59c-2.89 25.77-12.91 57.27-32.95 80.16zm-130.3 201.91c-173.25 0-305-136-305-306.41s131.73-306.41 305-306.41c68.73 0 136 22.91 189 65.86 4.3 4.3 4.3 8.6 1.43 12.89l-53 63c-2.87 4.3-8.6 4.3-12.89 0-35.8-25.77-78.75-41.52-124.57-41.52-114.51 0-206.15 91.68-206.15 206.18s91.64 206.18 206.18 206.18c50.11 0 95.93-17.18 131.73-47.25L748.66 831c-52.98 47.27-124.57 75.91-203.32 75.91zm305-297.82c-4.3 81.61-27.21 140.32-74.46 194.73l-71.59-71.59c28.64-34.37 41.53-70.16 45.82-121.71 1.43-20-8.59-30.07-27.2-30.07H546.77c-25.77 0-31.5 18.62-14.32 35.8l116 116A163.86 163.86 0 01545.34 768c-91.64 0-164.66-73-164.66-167.52s73-166.09 164.66-166.09c41.52 0 81.61 14.32 111.68 42.95 14.32 12.89 27.21 15.75 40.09 0l80.19-95.93c11.45-12.88 11.45-28.63-1.44-40.09C711.43 284.07 631.25 254 545.34 254a346.5 346.5 0 000 693c88.77 0 170.39-32.93 230.52-87.34L854.61 937c5.73 5.72 12.89 10 20 10s12.89-2.86 20-10c85.91-88.78 130.3-196.16 137.46-327.89 0-18.61-10-28.64-28.64-28.64H879c-17.23-.02-28.68 10.01-28.68 28.62z" fill="#181231"/></svg>
