<svg viewBox="0 0 835 693" fill="none" xmlns="http://www.w3.org/2000/svg"><path d="M702.43 362.25h81.62c5.72 0 8.583 2.863 8.59 8.59-7.16 103.09-44.39 194.73-111.64 270.61-4.29 2.87-7.15 2.87-11.45 0l-64.43-63a363.466 363.466 0 0088.77-207.61c-.05-5.73 4.25-8.59 8.54-8.59zM477.64 451l-78.75-78.75c-5.73-5.72-2.87-10 4.29-10H502c5.72 0 8.583 2.863 8.59 8.59-2.89 25.77-12.91 57.27-32.95 80.16zm-130.3 201.91c-173.25 0-305-136-305-306.41 0-170.41 131.73-306.41 305-306.41 68.73 0 136 22.91 189 65.86 4.3 4.3 4.3 8.6 1.43 12.89l-53 63c-2.87 4.3-8.6 4.3-12.89 0-35.8-25.77-78.75-41.52-124.57-41.52-114.51 0-206.15 91.68-206.15 206.18s91.64 206.18 206.18 206.18c50.11 0 95.93-17.18 131.73-47.25L550.66 577c-52.98 47.27-124.57 75.91-203.32 75.91zm305-297.82c-4.3 81.61-27.21 140.32-74.46 194.73l-71.59-71.59c28.64-34.37 41.53-70.16 45.82-121.71 1.43-20-8.59-30.07-27.2-30.07H348.77c-25.77 0-31.5 18.62-14.32 35.8l116 116A163.86 163.86 0 01347.34 514c-91.64 0-164.66-73-164.66-167.52 0-94.52 73-166.09 164.66-166.09 41.52 0 81.61 14.32 111.68 42.95 14.32 12.89 27.21 15.75 40.09 0l80.19-95.93c11.45-12.88 11.45-28.63-1.44-40.09C513.43 30.07 433.25 0 347.34 0a346.5 346.5 0 000 693c88.77 0 170.39-32.93 230.52-87.34L656.61 683c5.73 5.72 12.89 10 20 10 7.11 0 12.89-2.86 20-10 85.91-88.78 130.3-196.16 137.46-327.89 0-18.61-10-28.64-28.64-28.64H681c-17.23-.02-28.68 10.01-28.68 28.62h.02z" fill="#fff"/></svg>
